<svg xmlns="http://www.w3.org/2000/svg" version="1.1" xmlns:xlink="http://www.w3.org/1999/xlink" width="512" height="512" x="0" y="0" viewBox="0 0 512 512" style="enable-background:new 0 0 512 512" xml:space="preserve" class=""><g><path d="M437.333 405.323H266.667c-5.888 0-10.667 4.779-10.667 10.667s4.779 10.667 10.667 10.667h170.667c5.888 0 10.667-4.779 10.667-10.667s-4.78-10.667-10.668-10.667zM437.333 447.989H266.667c-5.888 0-10.667 4.779-10.667 10.667s4.779 10.667 10.667 10.667h170.667c5.888 0 10.667-4.779 10.667-10.667-.001-5.888-4.78-10.667-10.668-10.667zM74.667 405.323c-17.643 0-32 14.357-32 32s14.357 32 32 32 32-14.357 32-32-14.358-32-32-32zm0 42.666c-5.888 0-10.667-4.779-10.667-10.667s4.779-10.667 10.667-10.667 10.667 4.779 10.667 10.667c-.001 5.889-4.779 10.667-10.667 10.667zM74.667 277.323c-17.643 0-32 14.357-32 32s14.357 32 32 32 32-14.357 32-32-14.358-32-32-32zm0 42.666c-5.888 0-10.667-4.779-10.667-10.667s4.779-10.667 10.667-10.667 10.667 4.779 10.667 10.667-4.779 10.667-10.667 10.667zM437.333 191.989H266.667c-5.888 0-10.667 4.779-10.667 10.667s4.779 10.667 10.667 10.667h170.667c5.888 0 10.667-4.779 10.667-10.667s-4.78-10.667-10.668-10.667z" fill="#ffffff" opacity="1" data-original="#000000" class=""></path><path d="M512 202.656v-42.667c0-10.24-3.051-19.733-8.085-27.883-.149-.299-.171-.64-.341-.917L437.611 25.163C427.819 9.419 410.88.011 392.32.011H119.744c-18.581 0-35.499 9.408-45.291 25.152L8.491 131.189c-.107.171-.107.363-.213.555C3.115 139.957 0 149.6 0 159.989v42.667c0 17.493 8.597 32.939 21.675 42.667C8.597 255.072 0 270.496 0 287.989v42.667c0 17.493 8.597 32.939 21.675 42.667C8.597 383.072 0 398.496 0 415.989v42.667c0 29.397 23.936 53.333 53.333 53.333h405.333c29.397 0 53.333-23.936 53.333-53.333v-42.667c0-17.493-8.597-32.939-21.675-42.667C503.403 363.595 512 348.149 512 330.656v-42.667c0-17.493-8.597-32.939-21.675-42.667C503.403 235.595 512 220.171 512 202.656zM92.565 36.427c5.867-9.451 16.021-15.104 27.157-15.104h272.576c11.136 0 21.291 5.653 27.157 15.104l44.011 70.72c-1.6-.149-3.157-.491-4.8-.491H53.333c-1.643 0-3.179.341-4.779.491l44.011-70.72zm398.102 379.562v42.667c0 17.643-14.357 32-32 32H53.333c-17.643 0-32-14.357-32-32v-42.667c0-17.643 14.357-32 32-32h405.333c17.643 0 32.001 14.358 32.001 32zm0-128v42.667c0 17.643-14.357 32-32 32H53.333c-17.643 0-32-14.357-32-32v-42.667c0-17.643 14.357-32 32-32h405.333c17.643 0 32.001 14.358 32.001 32zm0-85.333c0 17.643-14.357 32-32 32H53.333c-17.643 0-32-14.357-32-32v-42.667c0-17.643 14.357-32 32-32h405.333c17.643 0 32 14.357 32 32v42.667z" fill="#ffffff" opacity="1" data-original="#000000" class=""></path><path d="M437.333 149.323H266.667c-5.888 0-10.667 4.779-10.667 10.667s4.779 10.667 10.667 10.667h170.667c5.888 0 10.667-4.779 10.667-10.667s-4.78-10.667-10.668-10.667zM437.333 319.989H266.667c-5.888 0-10.667 4.779-10.667 10.667s4.779 10.667 10.667 10.667h170.667c5.888 0 10.667-4.779 10.667-10.667s-4.78-10.667-10.668-10.667zM437.333 277.323H266.667c-5.888 0-10.667 4.779-10.667 10.667s4.779 10.667 10.667 10.667h170.667c5.888 0 10.667-4.779 10.667-10.667s-4.78-10.667-10.668-10.667zM74.667 149.323c-17.643 0-32 14.357-32 32s14.357 32 32 32 32-14.357 32-32-14.358-32-32-32zm0 42.666c-5.888 0-10.667-4.779-10.667-10.667s4.779-10.667 10.667-10.667 10.667 4.779 10.667 10.667-4.779 10.667-10.667 10.667z" fill="#ffffff" opacity="1" data-original="#000000" class=""></path></g></svg>